# xmcd
#
# Track frame offsets:
#	150
#	23645
#	48282
#	67575
#	82895
#	102707
#	120987
#	138317
#	156340
#	181657
#
# Disc length: 2650 seconds
#
# Revision: 0
# Processed by: cddbd v1.5.2PL0 Copyright (c) Steve Scherf et al.
# Submitted via: EasyCDDAExtractor 12.0.1.1
#
DISCID=700a580a
DTITLE=Lissette - Caricatura
DYEAR=1984
DGENRE=Latin
TTITLE0=Maquina
TTITLE1=Doña Soledad
TTITLE2=Fuego
TTITLE3=Cuando El Amor Te Toca
TTITLE4=De Carne Y Hueso
TTITLE5=Caricatura
TTITLE6=Enamorados
TTITLE7=No Soy Una Señora
TTITLE8=Eclipse Total Del Amor
TTITLE9=A Veces
EXTD=
EXTT0=
EXTT1=
EXTT2=
EXTT3=
EXTT4=
EXTT5=
EXTT6=
EXTT7=
EXTT8=
EXTT9=
PLAYORDER=
